HIERARCHY
ROOT hip
{
  OFFSET 97.7311 83.5447 22.1987
  CHANNELS 6 Xposition Yposition Zposition Zrotation Xrotation Yrotation
  JOINT abdomen
  {
    OFFSET 0 20.6881 -0.73152
    CHANNELS 3 Zrotation Xrotation Yrotation
    JOINT chest
    {
      OFFSET 0 11.7043 -0.48768
      CHANNELS 3 Zrotation Xrotation Yrotation
      JOINT neck
      {
        OFFSET 0 22.1894 -2.19456
        CHANNELS 3 Zrotation Xrotation Yrotation
        JOINT head
        {
          OFFSET -0.24384 7.07133 1.2192
          CHANNELS 3 Zrotation Xrotation Yrotation
          JOINT leftEye
          {
            OFFSET 4.14528 8.04674 8.04672
            CHANNELS 3 Zrotation Xrotation Yrotation
            End Site
            {
              OFFSET 1 0 0
            }
          }
          JOINT rightEye
          {
            OFFSET -3.6576 8.04674 8.04672
            CHANNELS 3 Zrotation Xrotation Yrotation
            End Site
            {
              OFFSET 1 0 0
            }
          }
        }
      }
      JOINT rCollar
      {
        OFFSET -2.68224 19.2634 -4.8768
        CHANNELS 3 Zrotation Xrotation Yrotation
        JOINT rShldr
        {
          OFFSET -8.77824 -1.95073 1.46304
          CHANNELS 3 Zrotation Xrotation Yrotation
          JOINT rForeArm
          {
            OFFSET -28.1742 -1.7115 0.48768
            CHANNELS 3 Zrotation Xrotation Yrotation
            JOINT rHand
            {
              OFFSET -22.5879 0.773209 7.07136
              CHANNELS 3 Zrotation Xrotation Yrotation
              JOINT rThumb1
              {
                OFFSET -1.2192 -0.487915 3.41376
                CHANNELS 3 Zrotation Xrotation Yrotation
                JOINT rThumb2
                {
                  OFFSET -3.37035 -0.52449 3.41376
                  CHANNELS 3 Zrotation Xrotation Yrotation
                  End Site
                  {
                    OFFSET -1.78271 -1.18214 1.43049
                  }
                }
              }
              JOINT rIndex1
              {
                OFFSET -7.75947 0.938293 5.60832
                CHANNELS 3 Zrotation Xrotation Yrotation
                JOINT rIndex2
                {
                  OFFSET -2.54057 -0.884171 1.56538
                  CHANNELS 3 Zrotation Xrotation Yrotation
                  End Site
                  {
                    OFFSET -1.62519 -0.234802 1.16502
                  }
                }
              }
              JOINT rMid1
              {
                OFFSET -8.24714 1.18213 3.41376
                CHANNELS 3 Zrotation Xrotation Yrotation
                JOINT rMid2
                {
                  OFFSET -3.10165 -0.590103 1.0647
                  CHANNELS 3 Zrotation Xrotation Yrotation
                  End Site
                  {
                    OFFSET -2.48547 -0.328903 0.83742
                  }
                }
              }
              JOINT rRing1
              {
                OFFSET -8.82822 0.546677 1.51678
                CHANNELS 3 Zrotation Xrotation Yrotation
                JOINT rRing2
                {
                  OFFSET -2.60934 -0.819778 -0.0198488
                  CHANNELS 3 Zrotation Xrotation Yrotation
                  End Site
                  {
                    OFFSET -2.33842 -0.294052 0.168128
                  }
                }
              }
              JOINT rPinky1
              {
                OFFSET -8.27202 -0.0477905 -0.4584
                CHANNELS 3 Zrotation Xrotation Yrotation
                JOINT rPinky2
                {
                  OFFSET -1.82734 -0.647385 -0.700984
                  CHANNELS 3 Zrotation Xrotation Yrotation
                  End Site
                  {
                    OFFSET -1.69225 -0.51767 -0.607171
                  }
                }
              }
            }
          }
        }
      }
      JOINT lCollar
      {
        OFFSET 2.68224 19.2634 -4.8768
        CHANNELS 3 Zrotation Xrotation Yrotation
        JOINT lShldr
        {
          OFFSET 8.77824 -1.95073 1.46304
          CHANNELS 3 Zrotation Xrotation Yrotation
          JOINT lForeArm
          {
            OFFSET 28.1742 -1.7115 0.48768
            CHANNELS 3 Zrotation Xrotation Yrotation
            JOINT lHand
            {
              OFFSET 22.5879 0.773209 7.07136
              CHANNELS 3 Zrotation Xrotation Yrotation
              JOINT lThumb1
              {
                OFFSET 1.2192 -0.487915 3.41376
                CHANNELS 3 Zrotation Xrotation Yrotation
                JOINT lThumb2
                {
                  OFFSET 3.37035 -0.52449 3.41376
                  CHANNELS 3 Zrotation Xrotation Yrotation
                  End Site
                  {
                    OFFSET 1.78271 -1.18214 1.43049
                  }
                }
              }
              JOINT lIndex1
              {
                OFFSET 7.75947 0.938293 5.60832
                CHANNELS 3 Zrotation Xrotation Yrotation
                JOINT lIndex2
                {
                  OFFSET 2.54057 -0.884171 1.56538
                  CHANNELS 3 Zrotation Xrotation Yrotation
                  End Site
                  {
                    OFFSET 1.62519 -0.234802 1.16502
                  }
                }
              }
              JOINT lMid1
              {
                OFFSET 8.24714 1.18213 3.41376
                CHANNELS 3 Zrotation Xrotation Yrotation
                JOINT lMid2
                {
                  OFFSET 3.10165 -0.590103 1.0647
                  CHANNELS 3 Zrotation Xrotation Yrotation
                  End Site
                  {
                    OFFSET 2.48547 -0.328903 0.83742
                  }
                }
              }
              JOINT lRing1
              {
                OFFSET 8.82822 0.546677 1.51678
                CHANNELS 3 Zrotation Xrotation Yrotation
                JOINT lRing2
                {
                  OFFSET 2.60934 -0.819778 -0.0198488
                  CHANNELS 3 Zrotation Xrotation Yrotation
                  End Site
                  {
                    OFFSET 2.33842 -0.294052 0.168128
                  }
                }
              }
              JOINT lPinky1
              {
                OFFSET 8.27202 -0.0477905 -0.4584
                CHANNELS 3 Zrotation Xrotation Yrotation
                JOINT lPinky2
                {
                  OFFSET 1.82734 -0.647385 -0.700984
                  CHANNELS 3 Zrotation Xrotation Yrotation
                  End Site
                  {
                    OFFSET 1.69225 -0.51767 -0.607171
                  }
                }
              }
            }
          }
        }
      }
    }
  }
  JOINT rButtock
  {
    OFFSET -8.77824 4.35084 1.2192
    CHANNELS 3 Zrotation Xrotation Yrotation
    JOINT rThigh
    {
      OFFSET 0 -1.70687 -2.19456
      CHANNELS 3 Zrotation Xrotation Yrotation
      JOINT rShin
      {
        OFFSET 0 -36.8199 0.73152
        CHANNELS 3 Zrotation Xrotation Yrotation
        JOINT rFoot
        {
          OFFSET 0.73152 -45.1104 -5.12064
          CHANNELS 3 Zrotation Xrotation Yrotation
          End Site
          {
            OFFSET -1.1221 -3.69964 12.103
          }
        }
      }
    }
  }
  JOINT lButtock
  {
    OFFSET 8.77824 4.35084 1.2192
    CHANNELS 3 Zrotation Xrotation Yrotation
    JOINT lThigh
    {
      OFFSET 0 -1.70687 -2.19456
      CHANNELS 3 Zrotation Xrotation Yrotation
      JOINT lShin
      {
        OFFSET 0 -36.8199 0.73152
        CHANNELS 3 Zrotation Xrotation Yrotation
        JOINT lFoot
        {
          OFFSET -0.73152 -45.1104 -5.12064
          CHANNELS 3 Zrotation Xrotation Yrotation
          End Site
          {
            OFFSET 1.1221 -3.69964 12.103
          }
        }
      }
    }
  }
}
MOTION
Frames:	5
Frame Time:	0.00833333
123.9 85.3326 0.128651 -0.888075 0.000480537 0.0163024 1.16874 -0.0049388 0.0322835 0.322753 -0.00472401 0.0559149 5.32114e-015 0 -1.2424e-017 1.59494e-014 3.18055e-015 -6.36732e-017 -0 0 0 -0 0 0 2.88109e-015 -1.00945e-017 1.49089e-016 5.84386e-014 -4.28629e-016 1.19271e-015 9.6331e-013 -2.96388e-013 -3.81667e-014 1.0997e-011 2.40753e-013 -6.36111e-015 2.5947e-011 -1.18439e-013 -8.5875e-014 4.48061e-011 -2.03556e-013 -1.64594e-013 2.59517e-011 -1.17283e-013 -9.54166e-014 7.73091 5.47488 0.417314 2.59476e-011 -1.18277e-013 -9.22361e-014 2.90554 0.965183 0.102902 2.59572e-011 -1.18277e-013 -9.62118e-014 10.2786 0.731801 0.0259123 2.59444e-011 -1.16885e-013 -9.22361e-014 2.22167 -0.733487 -0.20892 2.78445e-015 -8.92978e-018 -1.49089e-016 5.41069e-014 -4.28629e-016 -9.93923e-016 9.59583e-013 2.77901e-013 9.54166e-015 1.10053e-011 -3.35474e-013 -5.40694e-014 2.59566e-011 -1.22266e-013 -1.01778e-013 4.48228e-011 -2.13097e-013 -1.7334e-013 2.59501e-011 -1.18476e-013 -9.85972e-014 -7.73091 5.47488 -0.417314 2.59566e-011 -1.22253e-013 -1.04958e-013 -2.90554 0.965183 -0.102902 2.59452e-011 -1.21656e-013 -9.93923e-014 -10.2786 0.731801 -0.0259123 2.59633e-011 -1.22054e-013 -1.04958e-013 -2.22167 -0.733487 0.20892 -2.03217e-016 0 -3.88251e-019 1.35589 -5.84651 -0.12272 0.0011316 5.03399 0.0414005 -0.480901 0.811095 0.0710939 2.03217e-016 0 3.88251e-019 0.426463 -1.91991 0.00997157 0.00898928 -2.0786 0.0740816 0.459244 3.99698 -0.132482 
119.7 83.8315 -2.83278 1.95224 -1.31761 -20.333 -0.867498 -2.4849 4.35236 1.78297 -1.00491 1.37797 0.421987 3.99053 4.94216 -1.73433 -5.22069 9.58694 -0 0 0 -0 0 0 -1.08245e-014 -1.0473e-014 1.92538e-014 24.1556 -5.29885 -3.95263 -5.65548 -2.9394 8.39495 0.00982502 -2.20758 -0.309434 -1.01288e-010 -6.31173e-011 -1.19592e-010 -1.74717e-010 -1.08611e-010 -2.07403e-010 -1.01284e-010 -6.31165e-011 -1.196e-010 7.73091 5.47488 0.417314 -1.01287e-010 -6.3117e-011 -1.19599e-010 2.90554 0.965183 0.102902 -1.0128e-010 -6.3117e-011 -1.19601e-010 10.2786 0.731801 0.0259123 -1.01291e-010 -6.31156e-011 -1.19598e-010 2.22167 -0.733487 -0.20892 -1.09393e-014 -1.04695e-014 1.89975e-014 -25.6215 0.455936 1.55214 5.42476 -2.76424 -8.12264 -0.0265078 3.61353 -0.504209 1.95029e-010 3.5926e-010 2.69702e-010 3.40179e-010 6.19657e-010 4.64188e-010 1.95025e-010 3.59265e-010 2.69705e-010 -7.73091 5.47488 -0.417314 1.95031e-010 3.59262e-010 2.697e-010 -2.90554 0.965183 -0.102902 1.9502e-010 3.59263e-010 2.69703e-010 -10.2786 0.731801 -0.0259123 1.95033e-010 3.59262e-010 2.69697e-010 -2.22167 -0.733487 0.20892 -2.03217e-016 0 -3.88251e-019 -0.296102 -8.09533 -1.22 0.0413106 11.2203 0.202176 -1.40024 -5.80016 -5.9827 2.03217e-016 0 3.88251e-019 -0.689595 -6.47575 -1.78779 0.0169465 6.75505 -0.0348792 -0.0438076 -2.29328 -3.96749 
119.689 83.8175 -3.07342 4.06977 -2.25033 -41.8758 -2.66868 -5.05073 8.9587 3.42917 -2.06244 2.78332 0.107647 8.11149 10.241 -1.71134 -10.2464 19.9574 -0 0 0 -0 0 0 -2.65735e-014 -2.15508e-014 3.78592e-014 48.8433 -10.8129 -8.23842 -10.7136 -5.84151 17.3482 -0.00589784 -4.56356 -0.641243 -2.44208e-010 -1.12941e-010 -2.68984e-010 -4.21223e-010 -1.94088e-010 -4.66452e-010 -2.44204e-010 -1.12941e-010 -2.6899e-010 7.73091 5.47488 0.417314 -2.44207e-010 -1.12941e-010 -2.68991e-010 2.90554 0.965183 0.102902 -2.44201e-010 -1.12941e-010 -2.68992e-010 10.2786 0.731801 0.0259123 -2.44211e-010 -1.1294e-010 -2.68989e-010 2.22167 -0.733487 -0.20892 -2.67088e-014 -2.15449e-014 3.7648e-014 -52.7755 0.933396 3.18835 10.3171 -5.50212 -16.7709 0.0151962 7.44105 -1.04512 4.00403e-010 7.70921e-010 5.83129e-010 6.98747e-010 1.32953e-009 1.00354e-009 4.00402e-010 7.70926e-010 5.83132e-010 -7.73091 5.47488 -0.417314 4.00406e-010 7.70925e-010 5.83128e-010 -2.90554 0.965183 -0.102902 4.00396e-010 7.70926e-010 5.8313e-010 -10.2786 0.731801 -0.0259123 4.00404e-010 7.70925e-010 5.83122e-010 -2.22167 -0.733487 0.20892 -2.03217e-016 0 -3.88251e-019 -2.17707 -10.4724 -2.40026 0.0438566 17.7826 0.383275 -3.91346 -12.5618 -12.6164 2.03217e-016 0 3.88251e-019 -2.22304 -11.2544 -3.74038 0.06275 16.072 -0.155368 -1.49366 -8.85824 -8.10513 
119.69 83.8099 -3.30929 5.40769 -2.04177 -61.0807 -3.82105 -7.27452 13.0874 4.8419 -2.99876 4.02696 -0.809938 11.6123 15.1068 -0.0785043 -13.8974 29.5883 -0 0 0 -0 0 0 -3.82356e-014 -3.13987e-014 5.74631e-014 70.2204 -15.5884 -12.2649 -14.4536 -8.0625 25.4203 -0.0424646 -6.62196 -0.933843 -3.55758e-010 -1.89115e-010 -3.58606e-010 -6.13763e-010 -3.25425e-010 -6.21881e-010 -3.55756e-010 -1.89115e-010 -3.5861e-010 7.73091 5.47488 0.417314 -3.55758e-010 -1.89115e-010 -3.58612e-010 2.90554 0.965183 0.102902 -3.55753e-010 -1.89115e-010 -3.58612e-010 10.2786 0.731801 0.0259123 -3.55762e-010 -1.89113e-010 -3.5861e-010 2.22167 -0.733487 -0.20892 -3.83869e-014 -3.13907e-014 5.72908e-014 -76.9384 1.36379 4.65758 13.9845 -7.62746 -24.571 0.114199 10.8372 -1.53704 5.33175e-010 1.07802e-009 8.09308e-010 9.3089e-010 1.8594e-009 1.39291e-009 5.33176e-010 1.07803e-009 8.09311e-010 -7.73091 5.47488 -0.417314 5.33179e-010 1.07803e-009 8.09309e-010 -2.90554 0.965183 -0.102902 5.33169e-010 1.07803e-009 8.09309e-010 -10.2786 0.731801 -0.0259123 5.33173e-010 1.07803e-009 8.093e-010 -2.22167 -0.733487 0.20892 -2.03217e-016 0 -3.88251e-019 -3.8644 -12.5761 -3.46254 0.00861462 23.5921 0.559195 -7.53363 -18.1483 -18.9753 2.03217e-016 0 3.88251e-019 -3.80661 -15.5272 -5.5523 0.140347 24.4221 -0.276738 -3.62232 -14.5779 -12.0211 
119.672 83.8031 -3.52411 6.32506 -1.17394 -74.4111 -4.13828 -8.80615 15.9326 5.57169 -3.63841 4.86161 -1.76846 13.9039 18.6223 2.01847 -15.7841 36.5801 -0 0 0 -0 0 0 -3.96803e-014 -3.81717e-014 7.95636e-014 84.9187 -18.8083 -15.2574 -16.6527 -9.30796 31.0629 -0.0778951 -7.93719 -1.12276 -3.88888e-010 -3.31163e-010 -2.988e-010 -6.7139e-010 -5.71415e-010 -5.18259e-010 -3.88885e-010 -3.31163e-010 -2.98804e-010 7.73091 5.47488 0.417314 -3.88887e-010 -3.31162e-010 -2.98807e-010 2.90554 0.965183 0.102902 -3.88883e-010 -3.31162e-010 -2.98805e-010 10.2786 0.731801 0.0259123 -3.88892e-010 -3.31161e-010 -2.98804e-010 2.22167 -0.733487 -0.20892 -3.98362e-014 -3.8163e-014 7.94145e-014 -93.5727 1.68023 5.70827 16.1813 -8.85674 -30.0563 0.217173 13.1582 -1.88282 4.8444e-010 1.12373e-009 8.17368e-010 8.46972e-010 1.93925e-009 1.40736e-009 4.84442e-010 1.12374e-009 8.17371e-010 -7.73091 5.47488 -0.417314 4.84444e-010 1.12374e-009 8.17368e-010 -2.90554 0.965183 -0.102902 4.84435e-010 1.12374e-009 8.17368e-010 -10.2786 0.731801 -0.0259123 4.84437e-010 1.12374e-009 8.17358e-010 -2.22167 -0.733487 0.20892 -2.03217e-016 0 -3.88251e-019 -4.87682 -14.0111 -4.19013 -0.036852 27.5207 0.69015 -10.8448 -21.6344 -23.7802 2.03217e-016 0 3.88251e-019 -4.88613 -18.5909 -6.86119 0.220532 30.3556 -0.376307 -5.6291 -18.4727 -14.9812 
